<svg width="843" height="1120" viewBox="0 0 843 1120" fill="none" xmlns="http://www.w3.org/2000/svg">
<rect width="843" height="1120" fill="black"/>
<path fill-rule="evenodd" clip-rule="evenodd" d="M469 1028H521.401C521.401 986.299 553.941 953.969 594 953.969C634.059 953.969 666.599 986.295 666.599 1028L719 1028C719 957.528 663.065 902 594 902C524.931 902 469 957.532 469 1028Z" fill="#0657F9"/>
<path fill-rule="evenodd" clip-rule="evenodd" d="M282 1023.95L334.743 1024C334.814 983.639 367.679 950.8 408 950.8V898C338.484 898.004 282.129 954.415 282 1023.95Z" fill="#EF1E02"/>
<path fill-rule="evenodd" clip-rule="evenodd" d="M160 720C193.691 720 221 747.309 221 781C221 814.691 193.691 842 160 842C126.313 842 99 814.691 99 781C99 747.309 126.313 720 160 720Z" fill="#EF1E02"/>
<path fill-rule="evenodd" clip-rule="evenodd" d="M282.002 586C299.124 586 313 599.88 313 617.002C313 634.124 299.124 648.004 282.002 648.004C264.88 648.004 251 634.124 251 617.002C251 599.88 264.88 586 282.002 586Z" fill="#23D198"/>
<path fill-rule="evenodd" clip-rule="evenodd" d="M221 1024C220.996 956.62 166.38 901.996 99 902V1024H221Z" fill="#FABF06"/>
<path fill-rule="evenodd" clip-rule="evenodd" d="M779 843H659V723L779 843Z" fill="#FBFAE8"/>
<path fill-rule="evenodd" clip-rule="evenodd" d="M423 781.004C422.998 815.241 395.69 843 362 843C328.309 843 301 815.239 301 781H423C423 781.001 423 781.003 423 781.004ZM423 781.004L545 781C545 815.241 517.688 843 483.998 843C450.312 843 423 815.245 423 781.004Z" fill="#FBFAE8"/>
<path fill-rule="evenodd" clip-rule="evenodd" d="M334 409V531H269V409H334Z" fill="#EF1E02"/>
<path fill-rule="evenodd" clip-rule="evenodd" d="M391 462.996H451V403H391V462.996Z" fill="#0657F9"/>
<path fill-rule="evenodd" clip-rule="evenodd" d="M520 713H334V648.004L520 648V713Z" fill="#23D198"/>
<path fill-rule="evenodd" clip-rule="evenodd" d="M477 498V598H377V498H477Z" fill="#FABF06"/>
<path d="M291.526 212.781L298.631 188.874H309.643L294.191 233.278L293.338 235.303C291.041 240.323 287.252 242.834 281.971 242.834C280.479 242.834 278.963 242.609 277.424 242.159V234.379L278.987 234.414C280.929 234.414 282.373 234.118 283.321 233.526C284.292 232.934 285.049 231.952 285.594 230.578L286.802 227.416L273.339 188.874H284.386L291.526 212.781Z" fill="white"/>
<path d="M330.886 228.02C325.25 228.02 320.656 226.291 317.103 222.834C313.575 219.376 311.81 214.77 311.81 209.015V208.021C311.81 204.16 312.556 200.715 314.048 197.683C315.54 194.628 317.648 192.284 320.371 190.65C323.119 188.992 326.245 188.163 329.75 188.163C335.007 188.163 339.14 189.821 342.147 193.136C345.179 196.452 346.694 201.153 346.694 207.239V211.431H322.219C322.55 213.941 323.545 215.954 325.203 217.47C326.884 218.986 329.004 219.743 331.561 219.743C335.516 219.743 338.607 218.311 340.833 215.445L345.877 221.093C344.338 223.272 342.254 224.977 339.625 226.209C336.996 227.416 334.083 228.02 330.886 228.02ZM329.714 196.476C327.677 196.476 326.02 197.162 324.741 198.536C323.486 199.91 322.68 201.875 322.325 204.433H336.606V203.616C336.558 201.342 335.942 199.59 334.758 198.358C333.574 197.103 331.893 196.476 329.714 196.476Z" fill="white"/>
<path d="M374.829 227.31C374.355 226.386 374.012 225.238 373.798 223.864C371.312 226.635 368.079 228.02 364.101 228.02C360.335 228.02 357.209 226.931 354.722 224.752C352.26 222.573 351.028 219.826 351.028 216.511C351.028 212.437 352.532 209.311 355.54 207.133C358.571 204.954 362.94 203.853 368.648 203.829H373.372V201.626C373.372 199.85 372.91 198.429 371.987 197.364C371.087 196.298 369.654 195.765 367.688 195.765C365.96 195.765 364.598 196.18 363.603 197.008C362.632 197.837 362.147 198.974 362.147 200.419H351.881C351.881 198.193 352.567 196.132 353.941 194.238C355.315 192.343 357.256 190.863 359.767 189.797C362.277 188.708 365.095 188.163 368.221 188.163C372.958 188.163 376.711 189.359 379.482 191.751C382.277 194.119 383.674 197.458 383.674 201.769V218.429C383.698 222.076 384.207 224.835 385.201 226.706V227.31H374.829ZM366.339 220.17C367.854 220.17 369.252 219.838 370.53 219.175C371.809 218.488 372.756 217.576 373.372 216.44V209.832H369.536C364.397 209.832 361.661 211.609 361.33 215.161L361.294 215.765C361.294 217.044 361.744 218.097 362.644 218.926C363.544 219.755 364.776 220.17 366.339 220.17Z" fill="white"/>
<path d="M413.158 198.5C411.761 198.311 410.53 198.216 409.464 198.216C405.58 198.216 403.034 199.531 401.826 202.159V227.31H391.56V188.874H401.258L401.542 193.456C403.603 189.927 406.456 188.163 410.103 188.163C411.24 188.163 412.306 188.317 413.3 188.625L413.158 198.5Z" fill="white"/>
<path d="M427.581 188.874L427.901 193.314C430.648 189.88 434.33 188.163 438.948 188.163C443.022 188.163 446.053 189.359 448.042 191.751C450.032 194.143 451.05 197.719 451.097 202.479V227.31H440.831V202.728C440.831 200.549 440.357 198.974 439.41 198.003C438.463 197.008 436.888 196.511 434.685 196.511C431.796 196.511 429.629 197.743 428.185 200.206V227.31H417.918V188.874H427.581Z" fill="white"/>
<path d="M459.445 222.266C459.445 220.631 459.99 219.305 461.079 218.287C462.192 217.269 463.578 216.759 465.236 216.759C466.917 216.759 468.302 217.269 469.392 218.287C470.505 219.305 471.061 220.631 471.061 222.266C471.061 223.876 470.517 225.19 469.427 226.209C468.338 227.203 466.941 227.701 465.236 227.701C463.554 227.701 462.169 227.203 461.079 226.209C459.99 225.19 459.445 223.876 459.445 222.266Z" fill="white"/>
<path d="M482.571 227.31V196.405H476.852V188.874H482.571V187.097C482.618 182.266 484.098 178.548 487.011 175.943C489.948 173.314 494.081 172 499.409 172C502.606 172 506.49 172.699 511.061 174.096L509.569 182.586C507.248 181.899 505.448 181.461 504.169 181.272C502.89 181.058 501.517 180.952 500.048 180.952C495.265 180.952 492.873 183.071 492.873 187.311V188.874H500.439V196.405H492.873V227.31H482.571ZM515.856 227.31H505.555V188.874H515.856V227.31Z" fill="white"/>
<path d="M533.796 188.874L534.115 193.314C536.862 189.88 540.545 188.163 545.163 188.163C549.236 188.163 552.268 189.359 554.257 191.751C556.246 194.143 557.265 197.719 557.312 202.479V227.31H547.046V202.728C547.046 200.549 546.572 198.974 545.625 198.003C544.678 197.008 543.103 196.511 540.9 196.511C538.011 196.511 535.844 197.743 534.399 200.206V227.31H524.133V188.874H533.796Z" fill="white"/>
<path d="M587.4 227.31C586.927 226.386 586.583 225.238 586.37 223.864C583.883 226.635 580.651 228.02 576.672 228.02C572.907 228.02 569.781 226.931 567.294 224.752C564.831 222.573 563.6 219.826 563.6 216.511C563.6 212.437 565.103 209.311 568.111 207.133C571.142 204.954 575.512 203.853 581.219 203.829H585.944V201.626C585.944 199.85 585.482 198.429 584.558 197.364C583.658 196.298 582.226 195.765 580.26 195.765C578.531 195.765 577.17 196.18 576.175 197.008C575.204 197.837 574.718 198.974 574.718 200.419H564.452C564.452 198.193 565.139 196.132 566.513 194.238C567.886 192.343 569.828 190.863 572.338 189.797C574.849 188.708 577.667 188.163 580.793 188.163C585.529 188.163 589.283 189.359 592.054 191.751C594.848 194.119 596.246 197.458 596.246 201.769V218.429C596.269 222.076 596.778 224.835 597.773 226.706V227.31H587.4ZM578.91 220.17C580.426 220.17 581.823 219.838 583.102 219.175C584.381 218.488 585.328 217.576 585.944 216.44V209.832H582.107C576.968 209.832 574.233 211.609 573.901 215.161L573.866 215.765C573.866 217.044 574.316 218.097 575.216 218.926C576.116 219.755 577.347 220.17 578.91 220.17Z" fill="white"/>
<path d="M613.581 188.874L613.901 193.314C616.648 189.88 620.33 188.163 624.948 188.163C629.022 188.163 632.053 189.359 634.042 191.751C636.032 194.143 637.05 197.719 637.097 202.479V227.31H626.831V202.728C626.831 200.549 626.358 198.974 625.41 198.003C624.463 197.008 622.888 196.511 620.686 196.511C617.796 196.511 615.63 197.743 614.185 200.206V227.31H603.919V188.874H613.581Z" fill="white"/>
<path d="M660.898 219.743C662.793 219.743 664.332 219.222 665.516 218.18C666.7 217.138 667.316 215.753 667.363 214.024H676.99C676.966 216.629 676.256 219.021 674.859 221.2C673.462 223.355 671.543 225.036 669.104 226.244C666.688 227.428 664.012 228.02 661.076 228.02C655.581 228.02 651.248 226.28 648.074 222.798C644.901 219.293 643.314 214.462 643.314 208.305V207.63C643.314 201.709 644.889 196.985 648.039 193.456C651.188 189.927 655.51 188.163 661.005 188.163C665.812 188.163 669.661 189.537 672.55 192.284C675.463 195.007 676.943 198.643 676.99 203.189H667.363C667.316 201.2 666.7 199.59 665.516 198.358C664.332 197.103 662.769 196.476 660.827 196.476C658.435 196.476 656.623 197.352 655.392 199.104C654.184 200.833 653.58 203.651 653.58 207.559V208.625C653.58 212.579 654.184 215.421 655.392 217.15C656.6 218.879 658.435 219.743 660.898 219.743Z" fill="white"/>
<path d="M700.542 228.02C694.906 228.02 690.311 226.291 686.759 222.834C683.23 219.376 681.466 214.77 681.466 209.015V208.021C681.466 204.16 682.212 200.715 683.704 197.683C685.196 194.628 687.304 192.284 690.027 190.65C692.774 188.992 695.9 188.163 699.405 188.163C704.663 188.163 708.795 189.821 711.803 193.136C714.834 196.452 716.35 201.153 716.35 207.239V211.431H691.874C692.206 213.941 693.201 215.954 694.858 217.47C696.54 218.986 698.659 219.743 701.217 219.743C705.172 219.743 708.263 218.311 710.489 215.445L715.533 221.093C713.994 223.272 711.91 224.977 709.281 226.209C706.652 227.416 703.739 228.02 700.542 228.02ZM699.37 196.476C697.333 196.476 695.675 197.162 694.397 198.536C693.141 199.91 692.336 201.875 691.981 204.433H706.261V203.616C706.214 201.342 705.598 199.59 704.414 198.358C703.23 197.103 701.549 196.476 699.37 196.476Z" fill="white"/>
<path fill-rule="evenodd" clip-rule="evenodd" d="M237 207C237 200.456 235.698 193.912 233.194 187.866C230.69 181.82 226.983 176.272 222.355 171.645C217.728 167.017 212.18 163.31 206.134 160.806C200.088 158.302 193.544 157 187 157C180.456 157 173.912 158.302 167.866 160.806C161.82 163.31 156.272 167.017 151.645 171.645C147.017 176.272 143.31 181.82 140.806 187.866C138.302 193.912 137 200.456 137 207C137 213.544 138.302 220.088 140.806 226.134C143.31 232.18 147.017 237.728 151.645 242.355C156.272 246.983 161.82 250.69 167.866 253.194C173.912 255.698 180.456 257 187 257C193.544 257 200.088 255.698 206.134 253.194C212.18 250.69 217.728 246.983 222.355 242.355C226.983 237.728 230.69 232.18 233.194 226.134C235.698 220.088 237 213.544 237 207Z" fill="url(#paint0_linear)"/>
<path fill-rule="evenodd" clip-rule="evenodd" d="M184.416 184.425H189.584V229.577H184.416V184.425Z" fill="white"/>
<path fill-rule="evenodd" clip-rule="evenodd" d="M181.483 205.665V200.269C177.338 198.23 174.484 193.964 174.484 189.032C174.484 182.122 180.088 176.518 187 176.518C194.761 176.518 200.365 182.122 200.365 189.032C200.365 190.774 200.007 192.433 199.148 194.404L196.941 187.229L192.517 188.612L196.44 203.544L211.67 197.941L209.819 193.574L204.139 195.518C205.167 193.289 205.369 191.65 205.369 189.032C205.369 179.356 197.525 171.512 187 171.512C177.324 171.512 169.48 179.356 169.48 189.032C169.48 196.78 174.511 203.353 181.483 205.665Z" fill="white"/>
<path fill-rule="evenodd" clip-rule="evenodd" d="M192.517 208.337V213.733C196.662 215.773 199.516 220.038 199.516 224.97C199.516 231.88 193.912 237.484 187 237.484C179.239 237.484 173.635 231.88 173.635 224.97C173.635 223.228 173.993 221.569 174.852 219.598L177.059 226.773L181.483 225.39L177.56 210.458L162.33 216.062L164.181 220.428L169.861 218.484C168.833 220.713 168.631 222.352 168.631 224.97C168.631 234.646 176.475 242.49 187 242.49C196.676 242.49 204.52 234.646 204.52 224.97C204.52 217.222 199.489 210.649 192.517 208.337Z" fill="white"/>
<defs>
<linearGradient id="paint0_linear" x1="87" y1="207" x2="187" y2="307" gradientUnits="userSpaceOnUse">
<stop stop-color="#0077FC"/>
<stop offset="1" stop-color="#095EB5"/>
</linearGradient>
</defs>
</svg>
